<svg width="200" height="39" viewBox="0 0 200 39" fill="none" xmlns="http://www.w3.org/2000/svg">
    <path
        d="M196.797 12.7188L194.453 29H192.594L188.766 19.7812L184.922 29H183.062L180.766 12.7188H183.188C184.052 20.3229 184.5 24.3125 184.531 24.6875L187.516 17.6094H190.016L192.984 24.6406L194.297 12.7188H196.797Z"
        fill="white" />
    <path
        d="M169.344 12.3281C171.583 12.3281 173.365 13.1094 174.688 14.6719C176.01 16.2344 176.672 18.2917 176.672 20.8438C176.672 23.4167 176.01 25.4896 174.688 27.0625C173.365 28.6354 171.583 29.4219 169.344 29.4219C167.094 29.4219 165.307 28.6406 163.984 27.0781C162.672 25.5052 162.016 23.4271 162.016 20.8438C162.016 18.2812 162.677 16.224 164 14.6719C165.323 13.1094 167.104 12.3281 169.344 12.3281ZM169.344 27.2969C170.823 27.2969 171.99 26.6719 172.844 25.4219C173.698 24.1719 174.125 22.6562 174.125 20.875C174.125 19 173.703 17.4583 172.859 16.25C172.016 15.0417 170.844 14.4375 169.344 14.4375C167.833 14.4375 166.661 15.0365 165.828 16.2344C164.995 17.4219 164.578 18.9688 164.578 20.875C164.578 22.6875 165 24.2135 165.844 25.4531C166.688 26.6823 167.854 27.2969 169.344 27.2969Z"
        fill="white" />
    <path
        d="M118.406 29H115.984C115.786 28.3438 115.688 27.4688 115.688 26.375C114.302 28.4062 112.417 29.4219 110.031 29.4219C108.823 29.4219 107.755 28.9948 106.828 28.1406C105.911 27.276 105.453 26.1667 105.453 24.8125C105.453 24.0104 105.615 23.3021 105.938 22.6875C106.26 22.0729 106.734 21.5573 107.359 21.1406C107.984 20.7135 108.745 20.3802 109.641 20.1406C110.536 19.8906 111.599 19.7188 112.828 19.625L115.562 19.4062V18.625C115.562 15.8333 114.26 14.4375 111.656 14.4375C111.042 14.4375 110.26 14.5729 109.312 14.8438C108.375 15.1042 107.568 15.4167 106.891 15.7812L106.25 14.0312C108.469 12.8958 110.531 12.3281 112.438 12.3281C116.146 12.3281 118 14.2917 118 18.2188V25.2188C118 26.6354 118.135 27.8958 118.406 29ZM115.562 24.1719V21.2188C113.365 21.4167 111.854 21.6042 111.031 21.7812C110.219 21.9479 109.51 22.2656 108.906 22.7344C108.312 23.2031 108.016 23.8385 108.016 24.6406C108.016 25.3698 108.271 25.9583 108.781 26.4062C109.292 26.8542 109.943 27.0781 110.734 27.0781C111.599 27.0781 112.458 26.8229 113.312 26.3125C114.167 25.7917 114.917 25.0781 115.562 24.1719Z"
        fill="white" />
    <path
        d="M99.0312 13.1562L98.0469 15.5C96.974 15.0312 96.0469 14.7969 95.2656 14.7969C94.5469 14.7969 93.8438 15.0052 93.1562 15.4219C92.4688 15.8281 91.8333 16.4167 91.25 17.1875C90.6771 17.9479 90.3906 18.375 90.3906 18.4688V29H87.9688V12.7188H90.3906V16.0156C91.6927 13.5573 93.3802 12.3281 95.4531 12.3281C96.6823 12.3281 97.875 12.6042 99.0312 13.1562Z"
        fill="white" />
    <path
        d="M80.0469 20.9375H68.875C68.875 22.7812 69.4062 24.3021 70.4688 25.5C71.5417 26.6979 72.8542 27.2969 74.4062 27.2969C75.8854 27.2969 77.4115 27.0312 78.9844 26.5L79.4062 28.4531C77.9688 29.099 76.2917 29.4219 74.375 29.4219C71.9583 29.4219 70.0104 28.6458 68.5312 27.0938C67.0521 25.5417 66.3125 23.4479 66.3125 20.8125C66.3125 18.2292 66.974 16.1719 68.2969 14.6406C69.6302 13.099 71.349 12.3281 73.4531 12.3281C75.3281 12.3281 76.8958 13.0417 78.1562 14.4688C79.4167 15.8958 80.0469 17.7969 80.0469 20.1719V20.9375ZM77.3906 18.9531C77.3906 17.6823 76.9948 16.6146 76.2031 15.75C75.4115 14.875 74.526 14.4375 73.5469 14.4375C72.2865 14.4375 71.2396 14.8542 70.4062 15.6875C69.5833 16.5208 69.125 17.6094 69.0312 18.9531H77.3906Z"
        fill="white" />
    <path
        d="M61.625 29H59.1875V18.3125C59.1875 15.7292 58.7083 14.4375 57.75 14.4375C57.2604 14.4375 56.7188 14.8854 56.125 15.7812C55.5417 16.6667 55.25 17.1562 55.25 17.25V29H52.8281V18.3125C52.8281 15.7292 52.3438 14.4375 51.375 14.4375C50.8958 14.4375 50.3594 14.8854 49.7656 15.7812C49.1823 16.6667 48.8906 17.1562 48.8906 17.25V29H46.4531V12.7188H48.7969V15.1719C49.2552 14.3073 49.7969 13.6198 50.4219 13.1094C51.0573 12.5885 51.6875 12.3281 52.3125 12.3281C52.9688 12.3281 53.5573 12.5885 54.0781 13.1094C54.599 13.6198 54.9583 14.3073 55.1562 15.1719C55.6146 14.3073 56.1615 13.6198 56.7969 13.1094C57.4323 12.5885 58.0573 12.3281 58.6719 12.3281C60.6406 12.3281 61.625 14.0885 61.625 17.6094V29Z"
        fill="white" />
    <path
        d="M41.0938 29H38.6562V26.5938C36.9062 28.4583 35.0625 29.3906 33.125 29.3906C30.0729 29.3906 28.5469 27.5417 28.5469 23.8438V12.7188H30.9844V23.1406C30.9844 24.526 31.2031 25.5625 31.6406 26.25C32.0781 26.9271 32.8177 27.2656 33.8594 27.2656C35.349 27.2656 36.9479 26.3385 38.6562 24.4844V12.7188H41.0938V29Z"
        fill="white" />
    <path fill-rule="evenodd" clip-rule="evenodd"
        d="M143.8 4.73511L154.8 22.7351V7.80002H157.2V31.2649L146.2 13.2649V28.2H143.8V4.73511Z"
        fill="white" />
    <path fill-rule="evenodd" clip-rule="evenodd"
        d="M8.7998 4.73511L19.7998 22.7351V7.80002H22.1998V31.2649L11.1998 13.2649V28.2H8.7998V4.73511Z"
        fill="white" />
</svg>